<svg width="18" height="14" viewBox="0 0 18 14" fill="none" xmlns="http://www.w3.org/2000/svg">
<path d="M17.8922 1.65729C17.2222 1.94306 16.5115 2.13065 15.7839 2.2138C16.5418 1.77639 17.1238 1.08375 17.3979 0.258472C16.6773 0.670159 15.889 0.960219 15.0669 1.11612C14.3973 0.429261 13.4433 0 12.3875 0C10.3602 0 8.71657 1.58246 8.71657 3.53422C8.71657 3.81126 8.74907 4.08097 8.81163 4.33971C5.76087 4.19227 3.05607 2.78525 1.24553 0.646953C0.929625 1.16894 0.748607 1.77613 0.748607 2.42375C0.748607 3.64996 1.39671 4.73169 2.38162 5.36552C1.79869 5.34794 1.22858 5.19635 0.718903 4.92341C0.718693 4.93821 0.718693 4.95302 0.718693 4.96789C0.718693 6.68029 1.98401 8.10878 3.66322 8.43347C3.12267 8.57501 2.55567 8.59573 2.00553 8.49403C2.47262 9.89816 3.8283 10.9199 5.43455 10.9485C4.17825 11.8964 2.59542 12.4615 0.875669 12.4615C0.57933 12.4615 0.287184 12.4447 0 12.4121C1.62449 13.4149 3.55398 14 5.62696 14C12.379 14 16.0711 8.61448 16.0711 3.9441C16.0711 3.7908 16.0676 3.63839 16.0605 3.48684C16.7791 2.98665 17.3994 2.3671 17.8922 1.65729" fill="white"/>
</svg>
