<svg width="16" height="15" viewBox="0 0 16 15" fill="none" xmlns="http://www.w3.org/2000/svg">
<path d="M3.59445 15V4.87953H0.200256V15H3.59445ZM1.89779 3.49692C3.08141 3.49692 3.81815 2.71978 3.81815 1.74862C3.7961 0.755565 3.08145 0 1.92025 0C0.759235 0 0 0.75558 0 1.74862C0 2.71983 0.736562 3.49692 1.87563 3.49692H1.89769H1.89779ZM5.47313 15H8.86732V9.34824C8.86732 9.04576 8.88937 8.7436 8.979 8.52738C9.22438 7.92304 9.78286 7.29712 10.7205 7.29712C11.9487 7.29712 12.44 8.2252 12.44 9.5857V14.9999H15.834V9.19695C15.834 6.08833 14.1595 4.64193 11.9263 4.64193C10.0953 4.64193 9.29137 5.65626 8.84474 6.34712H8.86739V4.87932H5.4732C5.51774 5.82897 5.4732 14.9998 5.4732 14.9998L5.47313 15Z" fill="white"/>
</svg>
