<svg width="16" height="16" viewBox="0 0 16 16" fill="none" xmlns="http://www.w3.org/2000/svg">
<path d="M8.00182 3.87687C5.73165 3.87687 3.90052 5.69856 3.90052 7.95704C3.90052 10.2155 5.73165 12.0372 8.00182 12.0372C10.272 12.0372 12.1031 10.2155 12.1031 7.95704C12.1031 5.69856 10.272 3.87687 8.00182 3.87687ZM8.00182 10.6097C6.53478 10.6097 5.33544 9.42007 5.33544 7.95704C5.33544 6.494 6.53121 5.3044 8.00182 5.3044C9.47243 5.3044 10.6682 6.494 10.6682 7.95704C10.6682 9.42007 9.46887 10.6097 8.00182 10.6097V10.6097ZM13.2275 3.70997C13.2275 4.23908 12.7992 4.66165 12.2709 4.66165C11.739 4.66165 11.3143 4.23553 11.3143 3.70997C11.3143 3.18441 11.7426 2.75829 12.2709 2.75829C12.7992 2.75829 13.2275 3.18441 13.2275 3.70997ZM15.9439 4.67586C15.8832 3.40103 15.5905 2.27179 14.6517 1.34141C13.7165 0.411035 12.5814 0.119848 11.3 0.0559292C9.9793 -0.0186431 6.02077 -0.0186431 4.70008 0.0559292C3.42221 0.116297 2.28713 0.407484 1.34836 1.33786C0.409595 2.26824 0.120469 3.39748 0.0562189 4.67231C-0.0187396 5.9862 -0.0187396 9.92432 0.0562189 11.2382C0.1169 12.513 0.409595 13.6423 1.34836 14.5727C2.28713 15.503 3.41864 15.7942 4.70008 15.8581C6.02077 15.9327 9.9793 15.9327 11.3 15.8581C12.5814 15.7978 13.7165 15.5066 14.6517 14.5727C15.5869 13.6423 15.8796 12.513 15.9439 11.2382C16.0188 9.92432 16.0188 5.98975 15.9439 4.67586V4.67586ZM14.2377 12.648C13.9592 13.344 13.4202 13.8802 12.7171 14.1607C11.6641 14.5762 9.16546 14.4803 8.00182 14.4803C6.83818 14.4803 4.33599 14.5727 3.28657 14.1607C2.58696 13.8838 2.04797 13.3475 1.76599 12.648C1.34836 11.6004 1.44474 9.11468 1.44474 7.95704C1.44474 6.79939 1.35193 4.3101 1.76599 3.26609C2.0444 2.57008 2.58339 2.03387 3.28657 1.75334C4.33956 1.33786 6.83818 1.43374 8.00182 1.43374C9.16546 1.43374 11.6676 1.34141 12.7171 1.75334C13.4167 2.03032 13.9557 2.56653 14.2377 3.26609C14.6553 4.31365 14.5589 6.79939 14.5589 7.95704C14.5589 9.11468 14.6553 11.604 14.2377 12.648Z" fill="white"/>
</svg>
