<svg width="24" height="24" viewBox="0 0 24 24" fill="none" xmlns="http://www.w3.org/2000/svg">
<path d="M15.38 7.39998C16.4293 7.39998 17.28 6.54932 17.28 5.49998C17.28 4.45063 16.4293 3.59998 15.38 3.59998C14.3306 3.59998 13.48 4.45063 13.48 5.49998C13.48 6.54932 14.3306 7.39998 15.38 7.39998Z" stroke="#0D1222" stroke-width="1.2" stroke-miterlimit="10" stroke-linecap="round" stroke-linejoin="round"/>
<path d="M17.27 5.5H20.44" stroke="#0D1222" stroke-width="1.2" stroke-miterlimit="10" stroke-linecap="round" stroke-linejoin="round"/>
<path d="M2.6001 5.5H13.4801" stroke="#0D1222" stroke-width="1.2" stroke-miterlimit="10" stroke-linecap="round" stroke-linejoin="round"/>
<path d="M7.9 13.76C8.94934 13.76 9.8 12.9093 9.8 11.86C9.8 10.8106 8.94934 9.95996 7.9 9.95996C6.85066 9.95996 6 10.8106 6 11.86C6 12.9093 6.85066 13.76 7.9 13.76Z" stroke="#0D1222" stroke-width="1.2" stroke-miterlimit="10" stroke-linecap="round" stroke-linejoin="round"/>
<path d="M9.80029 11.86H20.4403" stroke="#0D1222" stroke-width="1.2" stroke-miterlimit="10" stroke-linecap="round" stroke-linejoin="round"/>
<path d="M2.6001 11.86H6.0101" stroke="#0D1222" stroke-width="1.2" stroke-miterlimit="10" stroke-linecap="round" stroke-linejoin="round"/>
<path d="M15.38 20.1199C16.4293 20.1199 17.28 19.2693 17.28 18.2199C17.28 17.1706 16.4293 16.3199 15.38 16.3199C14.3306 16.3199 13.48 17.1706 13.48 18.2199C13.48 19.2693 14.3306 20.1199 15.38 20.1199Z" stroke="#0D1222" stroke-width="1.2" stroke-miterlimit="10" stroke-linecap="round" stroke-linejoin="round"/>
<path d="M17.27 18.22H20.44" stroke="#0D1222" stroke-width="1.2" stroke-miterlimit="10" stroke-linecap="round" stroke-linejoin="round"/>
<path d="M2.6001 18.22H13.4801" stroke="#0D1222" stroke-width="1.2" stroke-miterlimit="10" stroke-linecap="round" stroke-linejoin="round"/>
</svg>
